<!-- Generated by IcoMoon.io -->
<svg version="1.1" xmlns="http://www.w3.org/2000/svg" width="512" height="512" viewBox="0 0 512 512">
<title></title>
<g id="icomoon-ignore">
</g>
<path fill="aliceblue"  d="M480 384c0 0-132 0-160 0s32 96 32 96c0 17.664-14.336 32-32 32h-128c-17.664 0-32-14.336-32-32 0 0 60.992-96 32-96s-160 0-160 0c-17.664 0-32-14.336-32-32v-320c0-17.664 14.336-32 32-32h448c17.664 0 32 14.336 32 32v320c0 17.664-14.336 32-32 32zM256 368c17.664 0 32-14.336 32-32s-14.336-32-32-32-32 14.336-32 32 14.336 32 32 32zM480 64c0-17.664-14.336-32-32-32h-384c-17.664 0-32 14.336-32 32v192c0 17.664 14.336 32 32 32h384c17.664 0 32-14.336 32-32v-192z"></path>
</svg>
