<!-- Generated by IcoMoon.io -->
<svg version="1.1" xmlns="http://www.w3.org/2000/svg" width="512" height="512" viewBox="0 0 512 512">
<title></title>
<g id="icomoon-ignore">
</g>
<path fill="aliceblue"  d="M64 128h32v-32h-32v32zM448 32h-384c-35.344 0-64 28.656-64 64v384h512v-384c0-35.344-28.656-64-64-64zM480 448h-448v-256h448v256zM480 160h-448v-64c0-17.664 14.336-32 32-32h384c17.664 0 32 14.336 32 32v64zM432 96h-224c-8.832 0-16 7.168-16 16s7.168 16 16 16h224c8.848 0 16-7.168 16-16s-7.152-16-16-16zM128 128h32v-32h-32v32z"></path>
</svg>
